<svg xmlns="http://www.w3.org/2000/svg" width="16" height="16" viewBox="0 0 16 16">
    <g fill="none" fill-rule="evenodd">
        <g fill="#00838F" fill-rule="nonzero">
            <g>
                <g>
                    <path d="M9.5 6v1c0 .206-.17.374-.376.374h-5.25c-.206 0-.374-.168-.374-.375V6c0-.206.168-.375.375-.375h5.25c.205 0 .374.17.374.375zm6.28 8.895l-.885.885c-.293.293-.768.293-1.059 0l-3.118-3.116c-.14-.14-.219-.33-.219-.53v-.51c-1.103.862-2.49 1.375-4 1.375-3.59 0-6.499-2.91-6.499-6.5S2.91 0 6.5 0s6.499 2.91 6.499 6.5c0 1.509-.513 2.896-1.375 3.999h.51c.2 0 .39.078.53.219l3.116 3.115c.29.294.29.769 0 1.062zM10.749 6.5c0-2.35-1.9-4.25-4.25-4.25S2.25 4.15 2.25 6.5s1.9 4.25 4.25 4.25 4.25-1.9 4.25-4.25z" transform="translate(-1391 -851) translate(1378 838) translate(13 13)"/>
                </g>
            </g>
        </g>
    </g>
</svg>
