<svg xmlns="http://www.w3.org/2000/svg" width="16" height="16" viewBox="0 0 16 16">
    <g fill="none" fill-rule="evenodd">
        <g fill="#786CBA" fill-rule="nonzero">
            <path d="M15 15.375V16H1v-.625c0-.207.168-.375.375-.375H2V3.75c0-.414.336-.75.75-.75H5.5V.75c0-.414.336-.75.75-.75h3.5c.414 0 .75.336.75.75V3h2.75c.414 0 .75.336.75.75V15h.625c.207 0 .375.168.375.375zM10.625 6h-1.25C9.168 6 9 6.168 9 6.375v1.25c0 .207.168.375.375.375h1.25c.207 0 .375-.168.375-.375v-1.25c0-.207-.168-.375-.375-.375zm-5.25 2h1.25C6.832 8 7 7.832 7 7.625v-1.25C7 6.168 6.832 6 6.625 6h-1.25C5.168 6 5 6.168 5 6.375v1.25c0 .207.168.375.375.375zm3.25 4h-1.25c-.207 0-.375.168-.375.375V15h2v-2.625c0-.207-.168-.375-.375-.375zm2-3h-1.25C9.168 9 9 9.168 9 9.375v1.25c0 .207.168.375.375.375h1.25c.207 0 .375-.168.375-.375v-1.25c0-.207-.168-.375-.375-.375zM7 9.375C7 9.168 6.832 9 6.625 9h-1.25C5.168 9 5 9.168 5 9.375v1.25c0 .207.168.375.375.375h1.25c.207 0 .375-.168.375-.375v-1.25zM6.687 3H7.5v.813c0 .103.084.187.188.187h.625c.103 0 .187-.084.187-.188V3h.813c.103 0 .187-.084.187-.188v-.624C9.5 2.083 9.416 2 9.312 2H8.5v-.813C8.5 1.085 8.416 1 8.312 1h-.624c-.104 0-.188.084-.188.188V2h-.813c-.103 0-.187.084-.187.188v.624c0 .104.084.188.188.188z"/>
        </g>
    </g>
</svg>
