<svg xmlns="http://www.w3.org/2000/svg" width="16" height="16" viewBox="0 0 16 16">
    <g fill="none" fill-rule="evenodd">
        <g fill="#333" fill-rule="nonzero">
            <g>
                <g>
                    <g>
                        <path d="M10.855 4.903C10.387 2.023 9.284 0 8 0S5.613 2.023 5.145 4.903h5.71zM4.903 8c0 .716.039 1.403.107 2.065h5.977c.068-.662.107-1.349.107-2.065s-.04-1.403-.107-2.065H5.01c-.068.662-.107 1.349-.107 2.065zm10.474-3.097c-.922-2.19-2.79-3.884-5.096-4.568.787 1.09 1.329 2.733 1.613 4.568h3.483zM5.717.335C3.412 1.02 1.541 2.713.622 4.903h3.483c.281-1.835.823-3.477 1.61-4.568zm10.006 5.6h-3.7c.067.678.106 1.371.106 2.065s-.039 1.387-.106 2.065h3.696c.178-.662.278-1.349.278-2.065s-.1-1.403-.274-2.065zM3.87 8c0-.694.039-1.387.106-2.065h-3.7C.103 6.597 0 7.284 0 8s.103 1.403.277 2.065h3.697C3.91 9.387 3.871 8.694 3.871 8zm1.274 3.097C5.613 13.977 6.716 16 8 16s2.387-2.023 2.855-4.903h-5.71zm5.139 4.568c2.303-.684 4.174-2.378 5.097-4.568h-3.484c-.284 1.835-.826 3.477-1.613 4.568zM.623 11.097c.922 2.19 2.79 3.884 5.096 4.568-.787-1.09-1.329-2.733-1.613-4.568H.623z" transform="translate(-52 -165) translate(20 92) translate(20 60) translate(12 13)"/>
                    </g>
                </g>
            </g>
        </g>
    </g>
</svg>
