<svg xmlns="http://www.w3.org/2000/svg" width="16" height="16" viewBox="0 0 16 16">
    <g fill="none" fill-rule="evenodd">
        <g fill="#00838F" fill-rule="nonzero">
            <g>
                <g>
                    <g>
                        <path d="M1 14.5c0 .828.672 1.5 1.5 1.5h11c.828 0 1.5-.672 1.5-1.5V6H1v8.5zm10-6.125c0-.206.169-.375.375-.375h1.25c.206 0 .375.169.375.375v1.25c0 .206-.169.375-.375.375h-1.25c-.206 0-.375-.169-.375-.375v-1.25zm0 4c0-.206.169-.375.375-.375h1.25c.206 0 .375.169.375.375v1.25c0 .206-.169.375-.375.375h-1.25c-.206 0-.375-.169-.375-.375v-1.25zm-4-4C7 8.169 7.169 8 7.375 8h1.25c.206 0 .375.169.375.375v1.25c0 .206-.169.375-.375.375h-1.25C7.169 10 7 9.831 7 9.625v-1.25zm0 4c0-.206.169-.375.375-.375h1.25c.206 0 .375.169.375.375v1.25c0 .206-.169.375-.375.375h-1.25C7.169 14 7 13.831 7 13.625v-1.25zm-4-4C3 8.169 3.169 8 3.375 8h1.25c.206 0 .375.169.375.375v1.25c0 .206-.169.375-.375.375h-1.25C3.169 10 3 9.831 3 9.625v-1.25zm0 4c0-.206.169-.375.375-.375h1.25c.206 0 .375.169.375.375v1.25c0 .206-.169.375-.375.375h-1.25C3.169 14 3 13.831 3 13.625v-1.25zM13.5 2H12V.5c0-.275-.225-.5-.5-.5h-1c-.275 0-.5.225-.5.5V2H6V.5c0-.275-.225-.5-.5-.5h-1c-.275 0-.5.225-.5.5V2H2.5C1.672 2 1 2.672 1 3.5V5h14V3.5c0-.828-.672-1.5-1.5-1.5z" transform="translate(-558 -170) translate(165 92) translate(200 65) translate(193 13)"/>
                    </g>
                </g>
            </g>
        </g>
    </g>
</svg>
