<svg xmlns="http://www.w3.org/2000/svg" width="16" height="16" viewBox="0 0 16 16">
    <g fill="none" fill-rule="evenodd">
        <g fill="white" fill-rule="nonzero">
            <path d="M12.804 6.363l-.205.364c-.075.135-.235.192-.378.138-.295-.112-.565-.273-.802-.474-.115-.097-.145-.267-.07-.4l.205-.364c-.173-.204-.308-.44-.398-.698h-.412c-.15 0-.28-.11-.305-.263-.05-.305-.053-.626 0-.945.025-.153.155-.265.305-.265h.412c.09-.257.225-.494.398-.698l-.205-.364c-.075-.133-.048-.303.07-.4.237-.201.51-.362.802-.474.143-.053.303.003.378.138l.205.364c.262-.048.53-.048.792 0l.205-.364c.075-.135.235-.191.378-.138.295.112.565.273.802.474.115.097.145.267.07.4l-.205.364c.173.204.308.441.398.698h.413c.15 0 .28.11.305.263.05.305.052.626 0 .945-.025.153-.155.265-.305.265h-.413c-.09.257-.225.494-.398.698l.205.364c.075.133.048.303-.07.4-.237.201-.51.362-.802.474-.143.054-.303-.003-.378-.138l-.205-.364c-.26.049-.53.049-.792 0zm-.263-1.498c.963.754 2.06-.364 1.32-1.345-.962-.757-2.06.364-1.32 1.345zM9.66 8.785l.842.429c.253.148.363.461.263.741-.223.617-.66 1.182-1.065 1.677-.185.226-.506.282-.758.135l-.728-.428c-.4.349-.865.626-1.372.807v.856c0 .296-.208.55-.493.602-.615.107-1.26.112-1.897 0-.288-.051-.5-.304-.5-.602v-.856c-.508-.183-.973-.458-1.373-.807l-.728.425c-.25.148-.572.092-.757-.135C.688 11.135.26 10.57.038 9.955c-.1-.277.01-.59.262-.741l.833-.428c-.098-.533-.098-1.08 0-1.615L.3 6.74C.048 6.591-.065 6.278.038 6c.222-.616.65-1.182 1.055-1.676.185-.227.505-.283.757-.135l.728.428c.4-.349.865-.627 1.373-.808v-.858c0-.293.205-.548.49-.599.615-.107 1.262-.112 1.9-.002.287.05.5.303.5.6v.857c.507.183.972.458 1.372.807l.728-.428c.25-.147.573-.091.758.135.405.495.83 1.06 1.052 1.677.1.278.003.59-.25.741l-.842.428c.097.535.097 1.083 0 1.618zm-2.94.539C8.198 7.362 6 5.122 4.075 6.63c-1.48 1.961.717 4.2 2.642 2.693zm6.085 4.654l-.205.364c-.075.135-.235.191-.378.138-.295-.112-.565-.273-.802-.474-.115-.097-.145-.267-.07-.4l.205-.364c-.173-.204-.308-.441-.398-.698h-.412c-.15 0-.28-.11-.305-.263-.05-.305-.053-.626 0-.945.025-.153.155-.265.305-.265h.412c.09-.257.225-.494.398-.698l-.205-.364c-.075-.133-.048-.303.07-.4.237-.201.51-.362.802-.474.143-.054.303.003.378.138l.205.364c.262-.049.53-.049.792 0l.205-.364c.075-.135.235-.192.378-.138.295.112.565.273.802.474.115.097.145.267.07.4l-.205.364c.173.204.308.44.398.698h.413c.15 0 .28.11.305.263.05.305.052.626 0 .945-.025.153-.155.265-.305.265h-.413c-.09.257-.225.494-.398.698l.205.364c.075.133.048.303-.07.4-.237.201-.51.362-.802.474-.143.053-.303-.003-.378-.138l-.205-.364c-.26.048-.53.048-.792 0zm-.263-1.5c.963.754 2.06-.365 1.32-1.346-.962-.754-2.06.365-1.32 1.345z"/>
        </g>
    </g>
</svg>
