<svg xmlns="http://www.w3.org/2000/svg" width="16" height="16" viewBox="0 0 16 16">
    <g fill="none" fill-rule="evenodd">
        <g fill="#00838F" fill-rule="nonzero">
            <g>
                <g>
                    <path d="M9.125 4.719V1H3.656C3.293 1 3 1.293 3 1.656v12.688c0 .363.293.656.656.656h9.188c.363 0 .656-.293.656-.656V5.375H9.781c-.36 0-.656-.295-.656-.656zm1.75 6.453c0 .18-.148.328-.328.328H5.953c-.18 0-.328-.148-.328-.328v-.219c0-.18.148-.328.328-.328h4.594c.18 0 .328.148.328.328v.219zm0-1.75c0 .18-.148.328-.328.328H5.953c-.18 0-.328-.148-.328-.328v-.219c0-.18.148-.328.328-.328h4.594c.18 0 .328.148.328.328v.219zm0-1.969v.219c0 .18-.148.328-.328.328H5.953c-.18 0-.328-.148-.328-.328v-.219c0-.18.148-.328.328-.328h4.594c.18 0 .328.148.328.328zm2.625-3.12V4.5H10V1h.167c.175 0 .342.068.465.191l2.677 2.68c.123.123.191.29.191.462z" transform="translate(-153 -33) translate(141 20) translate(12 13)"/>
                </g>
            </g>
        </g>
    </g>
</svg>
