<svg xmlns="http://www.w3.org/2000/svg" width="16" height="16" viewBox="0 0 16 16">
    <g fill="none" fill-rule="evenodd">
        <g fill="#00838F" fill-rule="nonzero">
            <g>
                <g>
                    <path d="M3.2 10.938H.8c-.442 0-.8.363-.8.812v2.438c0 .448.358.812.8.812h2.4c.442 0 .8-.364.8-.813V11.75c0-.449-.358-.813-.8-.813zm-.6-2.032h4.8v1.219h1.2V8.906h4.8v1.219h1.2V8.663c0-.538-.43-.976-.96-.976H8.6V6.063h1c.442 0 .8-.363.8-.812V2.812c0-.448-.358-.812-.8-.812H6.4c-.442 0-.8.364-.8.813V5.25c0 .449.358.813.8.813h1v1.625H2.36c-.53 0-.96.437-.96.975v1.462h1.2V8.906zm6.6 2.031H6.8c-.442 0-.8.364-.8.813v2.438c0 .448.358.812.8.812h2.4c.442 0 .8-.364.8-.813V11.75c0-.449-.358-.813-.8-.813zm6 0h-2.4c-.442 0-.8.364-.8.813v2.438c0 .448.358.812.8.812h2.4c.442 0 .8-.364.8-.813V11.75c0-.449-.358-.813-.8-.813z" transform="translate(-153 -99) translate(141 20) translate(12 79)"/>
                </g>
            </g>
        </g>
    </g>
</svg>
