<svg xmlns="http://www.w3.org/2000/svg" width="156" height="88" viewBox="0 0 156 88">
    <defs>
        <filter id="cspwjea1oa" width="156.4%" height="247.6%" x="-28.2%" y="-73.8%" filterUnits="objectBoundingBox">
            <feOffset dy="4" in="SourceAlpha" result="shadowOffsetOuter1"/>
            <feGaussianBlur in="shadowOffsetOuter1" result="shadowBlurOuter1" stdDeviation="6"/>
            <feColorMatrix in="shadowBlurOuter1" result="shadowMatrixOuter1" values="0 0 0 0 0 0 0 0 0 0 0 0 0 0 0 0 0 0 0.103638549 0"/>
            <feMerge>
                <feMergeNode in="shadowMatrixOuter1"/>
                <feMergeNode in="SourceGraphic"/>
            </feMerge>
        </filter>
    </defs>
    <g fill="none" fill-rule="evenodd">
        <g>
            <g filter="url(#cspwjea1oa)" transform="translate(3 3) translate(20 20)">
                <path fill="#00838F" d="M72.106 14.225h8.63V9.55h-8.63v4.675zM49.886 20.1v-17.2l-6.082 17.2h-5.109L32.059 1.256h6.074l3.115 10.237L44.38 1.256h11.043v18.843h-5.537zm13.038-4.768c1.07 0 1.85-.317 2.384-.966.579-.706.879-1.782.893-3.199v-.883c0-1.475-.29-2.578-.86-3.278-.526-.644-1.305-.957-2.382-.957h-.738v9.283h.703zm-6.239 4.768V1.256h6.274c1.675 0 3.202.381 4.538 1.131 1.35.76 2.416 1.85 3.17 3.245.741 1.37 1.118 2.94 1.118 4.663v.776c0 1.723-.37 3.286-1.1 4.644-.741 1.383-1.804 2.47-3.158 3.233-1.34.756-2.862 1.142-4.528 1.151h-6.314zm29.49 0V7.547l-4.059 1.24v-4.76l7.922-2.794h1.543v18.866h-5.406zm15.542-14.4c-.25 0-.545.06-.861.503-.32.447-.476 1.017-.476 1.742 0 .705.152 1.274.454 1.691.24.33.534.47.988.47.338 0 .611-.076.835-.233.2-.14.358-.294.48-.47v-1.11c0-.927-.163-1.625-.48-2.08-.253-.359-.535-.512-.94-.512zm-4.18 9.809l1.74-.027c1.295-.057 2.238-.365 2.864-.957-.371.08-.755.119-1.154.119-1.808 0-3.285-.63-4.39-1.873-1.07-1.204-1.612-2.816-1.612-4.792 0-1.26.286-2.437.85-3.498.575-1.084 1.392-1.94 2.429-2.547 1.03-.602 2.201-.909 3.476-.909 1.32 0 2.515.334 3.554.99 1.039.658 1.851 1.606 2.417 2.818.543 1.166.823 2.508.832 3.987v1.244c0 3.044-.799 5.491-2.376 7.275-1.6 1.812-3.871 2.792-6.749 2.91l-1.88.027v-4.767zM25.06 5.874c-.855 0-1.464.298-1.918.938-.521.736-.788 1.89-.795 3.43v.817c0 1.516.267 2.68.796 3.46.455.672 1.07.985 1.94.985.85 0 1.455-.299 1.9-.942.518-.745.783-1.905.79-3.45v-.817c0-1.556-.265-2.724-.787-3.47-.454-.649-1.066-.951-1.926-.951zM9.12 5.85c-1.11 0-1.567.468-1.815.82-.46.651-.708 1.795-.721 3.309v1.265c0 2.016.367 2.991.675 3.454.234.35.676.816 1.814.816.824 0 1.415-.159 1.759-.471.342-.313.546-.861.605-1.626l.07-.914h5.331c-.048-.437-.073-.886-.076-1.347v-.839c0-.467.023-.921.068-1.363h-5.298l-.072-.911c-.064-.82-.276-1.416-.61-1.726-.334-.31-.917-.467-1.73-.467zm15.962 14.48c-1.6 0-3.055-.388-4.323-1.154-1.276-.77-2.274-1.876-2.967-3.29-.372-.758-.644-1.581-.814-2.461l-.01.137c-.154 2.079-.956 3.749-2.387 4.963-1.408 1.197-3.262 1.804-5.508 1.804-2.493 0-4.493-.85-5.945-2.53C1.716 16.167 1 13.934 1 11.164v-1.03c0-1.76.324-3.34.964-4.702.66-1.408 1.626-2.508 2.868-3.268 1.235-.756 2.677-1.14 4.288-1.14 2.218 0 4.048.61 5.438 1.81 1.4 1.208 2.217 2.902 2.43 5.037l.002.013c.168-.849.43-1.642.78-2.373.69-1.432 1.684-2.551 2.956-3.325 1.266-.771 2.723-1.162 4.333-1.162 1.61 0 3.067.39 4.333 1.162 1.272.774 2.267 1.893 2.955 3.325.67 1.39 1.008 3.003 1.008 4.796v.752c0 1.8-.332 3.41-.989 4.788-.676 1.421-1.665 2.536-2.937 3.315-1.265.775-2.728 1.168-4.347 1.168zm63.31 17.56v-4.133l-1.701 4.134h-2.434l-1.686-4.098v4.098h-3.42V25.374h3.507l2.82 6.93 2.82-6.93h3.514v12.518h-3.42zm7.709-6.899c-.265 0-.469.054-.62.166-.045.034-.07.058-.083.074.334-.044.69-.067 1.064-.067h.228c-.014-.02-.028-.034-.037-.043-.086-.083-.286-.13-.552-.13zm.617 3.099c-.45 0-1.496.044-1.496.452 0 .17.045.207.072.23.036.03.145.122.447.122.25 0 .481-.065.711-.195.14-.08.248-.167.33-.266v-.343h-.064zm6.923.501c.209.264.473.375.863.375.336 0 .553-.107.749-.365.249-.33.38-.91.38-1.68 0-.664-.128-1.17-.379-1.507-.193-.26-.415-.365-.764-.365-.38 0-.64.113-.849.382v3.16zm-3.369 6.311v-3.011h-2.894l-.114-.222c-.527.243-1.103.366-1.721.366-1.034 0-1.906-.304-2.595-.904-.714-.62-1.092-1.45-1.092-2.4 0-1.019.38-1.877 1.105-2.502h-.944v-.989c0-.609.211-1.191.627-1.73.386-.499.902-.89 1.537-1.17.612-.269 1.283-.404 2.001-.404 1.163 0 2.112.31 2.818.923.735.64 1.122 1.507 1.148 2.582v3.63c0 .531.058.886.124 1.118v-8.11h3.18l.005.085c.44-.151.92-.228 1.437-.228 1.26 0 2.32.5 3.063 1.449.692.881 1.043 2.081 1.043 3.564v.124c0 1.405-.347 2.573-1.03 3.473-.74.975-1.797 1.489-3.054 1.489-.458 0-.883-.054-1.275-.164v3.031h-3.369zM47.09 31.281l-.036-.044c-.098-.11-.247-.223-.598-.223-.267 0-.459.08-.64.267h1.274zm24.915 0c-.011-.015-.024-.03-.037-.044-.097-.11-.246-.223-.597-.223-.268 0-.46.08-.64.267h1.274zM50.16 34.693c-.028-.109-.053-.22-.075-.334h-.363l.438.334zm4.286-3.643c-.347 0-.562.101-.746.35-.167.23-.368.705-.368 1.674 0 .67.123 1.174.366 1.501.183.247.396.348.733.348.407 0 .676-.124.885-.423v-3.05c-.21-.281-.476-.4-.87-.4zm8.498 0c-.342 0-.555.101-.737.35-.169.23-.37.705-.37 1.674 0 .668.124 1.174.364 1.504.179.244.388.345.728.345.405 0 .674-.127.886-.43v-3.028c-.217-.292-.482-.415-.871-.415zm-39.927-.036c-.36 0-.608.12-.83.404-.27.347-.408.904-.408 1.656 0 .641.136 1.143.406 1.49.22.282.473.403.846.403.376 0 .628-.122.846-.406.27-.356.408-.91.408-1.646 0-.634-.14-1.135-.414-1.49-.225-.288-.48-.411-.854-.411zm22.585 3.345c.048.078.103.151.165.218.248.27.535.39.93.39.296 0 .536-.052.712-.154.201-.117.377-.265.537-.454h-2.344zm24.915 0c.048.078.102.151.166.217.249.271.535.39.93.39.296 0 .535-.05.71-.153.202-.116.378-.265.537-.454h-2.343zm-7.706 6.617c-.712 0-1.416-.15-2.092-.448-.72-.316-1.285-.768-1.68-1.34l-.43-.626 1.355-1.546c-.152-.143-.296-.302-.429-.473-.39-.5-.674-1.091-.851-1.768v3.117h-3.183l-.006-.074c-.43.145-.9.218-1.402.218-1.228 0-2.282-.52-3.049-1.5-.165-.211-.312-.437-.438-.676l-.142.215c-.848 1.283-2.176 1.96-3.84 1.96-1.36 0-2.489-.454-3.359-1.351-.54-.558-.913-1.23-1.115-2.008v3.216h-3.368v-6.964l-2.058 6.964h-2.588l-1.188-3.65-1.158 3.65h-2.595l-1.55-5.266c.005.116.008.233.008.353 0 1.002-.184 1.836-.545 2.576-.38.775-.933 1.389-1.645 1.825-.711.435-1.53.656-2.432.656-1.37 0-2.505-.483-3.37-1.437-.417-.461-.73-.993-.94-1.592v2.885h-3.368V31.72c-.004-.44-.11-.564-.123-.577-.03-.032-.167-.093-.469-.093-.234 0-.42.054-.583.167-.141.098-.258.218-.354.361v6.314H8.251l-3.385-4.373-.216.221v4.152H1.23V25.374h3.42v3.621l3.305-3.621h4.392l-5.152 5.694 3.262 4.225V28.08h3.252l.005.109c.45-.168.94-.253 1.46-.253 2.034 0 3.287 1.14 3.511 3.157.077-.238.172-.467.282-.686.39-.78.945-1.394 1.651-1.824.706-.43 1.513-.647 2.4-.647 1.377 0 2.513.483 3.377 1.438.178.196.336.405.477.627l-.566-1.921h3.463l.873 3.27 1.033-3.27h2.573l1.048 3.322.848-3.322h2.64v-3.287h3.367v6.677c.091-.361.217-.703.376-1.027.382-.773.927-1.388 1.621-1.831.706-.45 1.482-.676 2.307-.676 1.339 0 2.409.456 3.18 1.359.313.367.561.796.74 1.284.17-.427.394-.818.67-1.166.765-.967 1.824-1.477 3.064-1.477.427 0 .832.054 1.208.163v-3.306h3.368v6.331c.177-.659.463-1.236.852-1.727.76-.957 1.822-1.461 3.07-1.461.501 0 .971.075 1.4.221l.005-.077h3.179v2.968c.072-.208.155-.41.25-.605.383-.773.928-1.388 1.623-1.831.706-.45 1.481-.676 2.306-.676 1.34 0 2.408.456 3.18 1.359.727.85 1.095 2.034 1.095 3.517v1.546h-1.008l1.246.954-.503.762c-.848 1.283-2.176 1.96-3.84 1.96-1.36 0-2.49-.454-3.359-1.351-.444-.458-.775-.993-.99-1.6v1.63c0 1.287-.41 2.333-1.22 3.107-.8.765-1.863 1.155-3.159 1.155z"/>
                <path fill="#FFF" d="M92.813 24.39h-5.197l-.504 1.244-1.636 4.028-1.635-4.028-.505-1.243h-5.189V38.91h5.426v-.018l.007.018h3.785l.022-.054v.054h5.426v-.61c.776.496 1.706.755 2.727.755.425 0 .838-.048 1.233-.145H99.267v3.016H104.64V39.05c.089.004.18.006.272.006 1.586 0 2.919-.653 3.856-1.889.817-1.077 1.231-2.447 1.231-4.073v-.123c0-1.71-.422-3.114-1.253-4.177-.94-1.201-2.274-1.836-3.857-1.836-.451 0-.884.05-1.293.145h-4.33v.723c-.835-.577-1.871-.868-3.088-.868-.859 0-1.67.166-2.41.491-.347.153-.666.334-.956.543v-3.601zm-69.814 7.633h.03l.03.001.018.02c.171.224.208.608.208.891 0 .725-.16.991-.208 1.055-.003.003-.005.006-.005.008l-.036.002c-.046 0-.066-.005-.066-.005-.113-.176-.184-.493-.184-.9 0-.761.166-1.012.2-1.054l.013-.018zm-14.5-.888l.958-1.063v2.307l-.959-1.244zm51.19-7.324h-5.375v3.151c-.068-.003-.137-.004-.205-.004-1.489 0-2.77.587-3.72 1.697-.67-.778-1.893-1.697-3.933-1.697-1.023 0-1.982.282-2.85.837-.157.1-.307.206-.45.319V23.81H37.78v3.292h-2.417l-.168.658-.207-.658h-4.051l-.213.675-.18-.675h-5.573l.057.196c-.62-.226-1.293-.34-2.008-.34-1.077 0-2.062.267-2.928.795-.45.276-.85.61-1.196.999-.775-1.148-2.064-1.795-3.72-1.795-.438 0-.858.05-1.258.145H12.14l2.449-2.712H7.512l-.599.656-1.255 1.38V24.39H.23V38.91h5.427v-2.718l1.497 1.938.602.78H19.727v-.892c.929.68 2.054 1.037 3.309 1.037 1.092 0 2.088-.272 2.96-.807.716-.44 1.3-1.023 1.743-1.738l.286.972.42 1.428h4.086l.432-1.364.444 1.364H37.48l.3-1.022v1.022h5.375v-.97c.963.732 2.147 1.115 3.47 1.115 1.593 0 2.937-.52 3.946-1.515.928.993 2.138 1.515 3.523 1.515.452 0 .884-.048 1.29-.145H57.617l.593.864c.5.728 1.208 1.298 2.1 1.69.806.356 1.649.535 2.502.535 1.543 0 2.878-.497 3.858-1.438.539-.516 1.157-1.354 1.408-2.614.962.728 2.142 1.108 3.46 1.108 2.02 0 3.64-.835 4.682-2.416l1.007-1.525-.578-.444v-1.838c0-1.726-.45-3.126-1.333-4.162-.667-.78-1.892-1.713-3.947-1.713-1.023 0-1.982.282-2.85.837-.112.07-.22.145-.325.223v-.915H63.89c-.406-.095-.833-.145-1.283-.145-1.104 0-2.095.317-2.918.926v-4.073zm3.536-9.491V7.02c.796.05 1.13.332 1.332.58.419.514.64 1.435.64 2.664v.894c-.01 1.155-.243 2.05-.672 2.573-.203.248-.534.53-1.3.588zm-38.14.185c-.614 0-.878-.209-1.106-.546-.41-.607-.627-1.616-.627-2.916v-.824c.007-1.657.338-2.473.615-2.864.225-.319.487-.517 1.094-.517.61 0 .873.201 1.1.525.278.398.61 1.227.61 2.914v.824c-.008 1.666-.339 2.493-.615 2.892-.219.316-.475.512-1.07.512zm-16.009.01c-.727 0-.88-.23-.973-.37-.155-.231-.512-.979-.512-2.916V9.952c.015-1.734.346-2.462.542-2.742.103-.147.278-.395.99-.395.654 0 .963.125 1.042.2.01.007.23.221.297 1.084l.145 1.826h5.159c-.003.124-.005.25-.005.376v.834c0 .122.003.244.006.364h-5.189l-.14 1.833c-.043.565-.175.875-.286.975-.084.078-.406.209-1.076.209zM25.061 0c-1.799 0-3.435.442-4.86 1.311-1.285.783-2.315 1.872-3.072 3.24-.464-.963-1.1-1.795-1.907-2.493C13.643.692 11.592 0 9.124 0 7.323 0 5.702.435 4.306 1.291c-1.411.866-2.505 2.11-3.25 3.7C.356 6.484 0 8.208 0 10.114v1.032c0 3.017.797 5.469 2.367 7.289 1.652 1.913 3.91 2.883 6.71 2.883 2.492 0 4.566-.688 6.162-2.046.819-.697 1.46-1.52 1.915-2.463.76 1.353 1.797 2.431 3.082 3.208 1.43.865 3.06 1.301 4.85 1.301 1.807 0 3.448-.443 4.875-1.32 1.44-.882 2.555-2.141 3.316-3.74.719-1.513 1.084-3.268 1.084-5.216v-.255l3.153 8.968.468 1.332H44.52l.47-1.33 3.894-11.035v12.364h14.11c1.852-.01 3.541-.44 5.032-1.282 1.521-.86 2.715-2.083 3.548-3.637.166-.311.316-.633.45-.963h9.715V9.919l1.974-.605 1.457-.445v12.218h7.414V.21h-2.721l-.33.116-7.091 2.507-1.33.47V8.54h-8.447c-.179-1.222-.551-2.36-1.113-3.4-.843-1.564-2.04-2.79-3.558-3.644C66.504.657 64.81.233 62.958.233H43.635l-.43 1.408-1.953 6.395-1.942-6.391-.428-1.412H30.65l.797 2.267c-.46-.452-.968-.848-1.525-1.189C28.495.441 26.86 0 25.06 0zm76.621 9.084c0-.002-.014-.016-.033-.043-.178-.246-.269-.624-.269-1.12 0-.508.099-.902.292-1.174.028-.039.05-.064.067-.081.01 0 .019 0 .024.002.002.005.027.03.063.082.091.13.303.538.303 1.52v.735l-.057.042c-.047.034-.133.05-.252.05-.078 0-.122-.01-.138-.013zM101.738 0c-1.46 0-2.8.353-3.99 1.05-1.198.702-2.144 1.692-2.806 2.942-.64 1.207-.964 2.54-.964 3.964 0 2.227.626 4.06 1.862 5.453.381.43.804.799 1.268 1.106l-.577.009v6.754l2.035-.028.835-.012h.028l.028-.002c3.164-.13 5.675-1.226 7.465-3.254 1.74-1.972 2.621-4.642 2.621-7.937V8.804c-.01-1.635-.32-3.115-.924-4.413-.646-1.389-1.584-2.479-2.785-3.24C104.63.387 103.252 0 101.738 0zm-63.45 29.083l-2.315 7.847h-1.102l-1.934-5.947-1.882 5.947h-1.102l-2.308-7.847h1.351l1.567 5.875 1.852-5.875h1.096l1.889 5.999 1.529-5.999h1.36zm-23.111-.144c1.68 0 2.528.935 2.543 2.807v5.184h-1.36v-5.192c-.005-.565-.136-.983-.393-1.255-.257-.27-.658-.406-1.202-.406-.441 0-.828.116-1.161.349-.333.232-.593.537-.78.914v5.59h-1.36v-7.847h1.287l.044.986c.607-.753 1.401-1.13 2.382-1.13zm7.859 7.042c.69 0 1.24-.268 1.646-.801.406-.536.61-1.283.61-2.245 0-.86-.207-1.559-.621-2.092-.415-.535-.965-.802-1.65-.802-.672 0-1.214.264-1.625.79-.412.528-.618 1.282-.618 2.263 0 .87.205 1.569.614 2.096.41.526.957.79 1.644.79zm-.015-7.042c1.083 0 1.959.37 2.627 1.11.67.74 1.004 1.723 1.004 2.95v.095c0 .765-.149 1.449-.445 2.056-.297.607-.72 1.08-1.271 1.418-.552.339-1.186.508-1.9.508-1.08 0-1.953-.37-2.622-1.11-.668-.74-1.003-1.719-1.003-2.937v-.094c0-.768.153-1.46.459-2.074.306-.614.733-1.088 1.28-1.421.546-.334 1.17-.501 1.87-.501zm21.362 3.35h3.985v-.102c-.04-.68-.226-1.21-.56-1.585-.333-.373-.783-.561-1.352-.561-.548 0-1.01.197-1.381.59-.374.395-.604.947-.692 1.658zm2.073-3.35c1.034 0 1.838.336 2.411 1.008.574.672.86 1.634.86 2.886v.558H44.34c.02.774.249 1.399.687 1.875.439.476.996.715 1.673.715.48 0 .887-.097 1.22-.29.333-.193.625-.45.875-.769l.83.638c-.666 1.01-1.666 1.516-2.999 1.516-1.078 0-1.955-.35-2.631-1.049-.677-.698-1.015-1.631-1.015-2.802v-.246c0-.779.15-1.474.452-2.087.302-.61.723-1.089 1.264-1.435.542-.345 1.13-.518 1.76-.518zm16.474 6.998c.857 0 1.488-.385 1.89-1.153V31.2c-.417-.75-1.043-1.124-1.876-1.124-.661 0-1.178.254-1.55.762-.373.507-.559 1.26-.559 2.255 0 .886.183 1.58.55 2.086.369.504.883.757 1.545.757zm-.324-6.998c.97 0 1.728.338 2.272 1.015l.066-.87h1.243v7.658c0 1.015-.305 1.816-.915 2.4-.61.586-1.43.878-2.46.878-.573 0-1.134-.121-1.682-.363-.55-.241-.969-.572-1.258-.993l.705-.805c.584.71 1.297 1.067 2.14 1.067.662 0 1.178-.185 1.548-.552.37-.367.554-.884.554-1.552v-.675c-.544.619-1.287.929-2.227.929-.932 0-1.684-.37-2.26-1.11-.577-.74-.865-1.748-.865-3.024 0-1.224.286-2.196.86-2.92.574-.722 1.333-1.083 2.279-1.083zm6.69 3.35h3.984v-.102c-.039-.68-.226-1.21-.559-1.585-.333-.373-.784-.561-1.352-.561-.549 0-1.01.197-1.382.59-.372.395-.603.947-.691 1.658zm2.073-3.35c1.034 0 1.838.336 2.411 1.008.573.672.861 1.634.861 2.886v.558h-5.39c.02.774.25 1.399.689 1.875.437.476.996.715 1.672.715.48 0 .887-.097 1.22-.29.334-.193.625-.45.875-.769l.83.638c-.666 1.01-1.665 1.516-2.998 1.516-1.08 0-1.956-.35-2.632-1.049-.676-.698-1.015-1.631-1.015-2.802v-.246c0-.779.15-1.474.452-2.087.302-.61.724-1.089 1.265-1.435.542-.345 1.128-.518 1.76-.518zm24.37 6.97c.426 0 .83-.11 1.212-.327.382-.218.66-.5.831-.849v-1.61h-1.066c-1.666 0-2.5.481-2.5 1.443 0 .42.143.75.427.986.284.238.65.356 1.096.356zm.44-6.97c.918 0 1.634.225 2.154.677.52.452.789 1.075.81 1.868v3.613c0 .72.091 1.292.278 1.717v.116h-1.426c-.078-.154-.143-.43-.19-.826-.633.647-1.388.972-2.265.972-.784 0-1.427-.219-1.93-.658-.502-.436-.753-.99-.753-1.663 0-.817.314-1.452.945-1.904.629-.452 1.515-.678 2.657-.678h1.323v-.616c0-.469-.141-.843-.426-1.121-.284-.278-.704-.416-1.258-.416-.485 0-.891.12-1.22.362-.329.242-.492.534-.492.878h-1.367c0-.392.141-.77.422-1.136.282-.364.665-.654 1.147-.866.483-.213 1.013-.32 1.591-.32zm8.323 7.042c.651 0 1.17-.256 1.554-.766.385-.51.578-1.268.578-2.273 0-.885-.192-1.583-.574-2.095-.383-.513-.907-.77-1.573-.77-.823 0-1.442.36-1.853 1.08v3.75c.406.716 1.03 1.074 1.868 1.074zm.388-7.042c.956 0 1.713.355 2.269 1.066.557.711.834 1.7.834 2.966v.123c0 1.195-.276 2.157-.83 2.887-.554.73-1.304 1.095-2.25 1.095-.965 0-1.725-.302-2.28-.906v3.777h-1.359V29.083h1.243l.065.87c.554-.676 1.324-1.014 2.308-1.014zM10.112 26.37L5.9 31.035l4.542 5.895h-1.69l-3.794-4.909-1.308 1.342v3.567H2.238V26.371H3.65v5.221l4.756-5.22h1.706zm80.694 0v10.56h-1.412v-4.112l.133-4.439-3.514 8.55h-1.081l-3.507-8.528.14 4.417v4.111h-1.41V26.371h1.822l3.499 8.616 3.5-8.616h1.83zm-51.018 10.56h1.36V25.79h-1.36v11.14zm14.644-.994c.863 0 1.492-.382 1.89-1.145v-3.606c-.408-.74-1.032-1.109-1.875-1.109-.666 0-1.186.254-1.559.762-.372.507-.558 1.26-.558 2.255 0 .89.186 1.587.558 2.089.373.503.888.754 1.544.754zm3.249-10.146v11.14h-1.25l-.065-.842c-.544.658-1.302.987-2.272.987-.922 0-1.672-.372-2.254-1.117-.58-.745-.87-1.717-.87-2.916v-.101c0-1.204.29-2.172.867-2.905.579-.732 1.335-1.098 2.272-1.098.931 0 1.669.314 2.213.942v-4.09h1.359zm15.428-12.566h6.622v-2.703h-6.622v2.703zM49.055 2.213l-5.963 16.894h-3.681L33.47 2.213h3.916l3.858 12.706 3.882-12.706h3.928zm1.835 16.894h3.529V2.213h-3.53v16.894zm10.328-2.796h1.705c1.38 0 2.435-.445 3.164-1.335.73-.889 1.102-2.161 1.117-3.817v-.894c0-1.717-.36-3.018-1.082-3.904-.722-.886-1.776-1.329-3.164-1.329h-1.74v11.28zm1.74-14.098c1.506 0 2.853.334 4.04 1.003 1.188.67 2.116 1.621 2.782 2.855.667 1.233 1 2.636 1 4.206v.777c0 1.57-.327 2.967-.983 4.19-.654 1.222-1.577 2.17-2.769 2.842-1.192.674-2.537 1.013-4.035 1.021H57.69V2.213h5.27zm27.618-.024v16.918h-3.4V6.181l-4.058 1.241V4.695L90.21 2.19h.366zM9.124 1.98c1.976 0 3.568.523 4.775 1.567 1.207 1.044 1.905 2.51 2.094 4.398h-3.53c-.086-1.091-.393-1.882-.923-2.373-.529-.491-1.335-.737-2.416-.737-1.177 0-2.057.416-2.641 1.248-.584.831-.884 2.12-.9 3.87v1.276c0 1.825.28 3.16.842 4.003.56.843 1.444 1.264 2.651 1.264 1.09 0 1.904-.245 2.441-.736.537-.492.845-1.251.924-2.28h3.528c-.133 1.817-.813 3.249-2.04 4.293s-2.845 1.566-4.853 1.566c-2.195 0-3.922-.729-5.18-2.187-1.26-1.458-1.889-3.46-1.889-6.005v-1.032c0-1.625.29-3.056.872-4.294.58-1.238 1.409-2.187 2.487-2.849 1.078-.66 2.33-.992 3.758-.992zm15.961 14.505c1.183 0 2.093-.458 2.728-1.375.635-.917.957-2.253.965-4.01v-.823c0-1.771-.321-3.117-.965-4.038-.642-.92-1.56-1.381-2.752-1.381-1.184 0-2.098.454-2.74 1.363-.643.91-.969 2.242-.977 3.998v.824c0 1.725.322 3.063.965 4.015.643.951 1.568 1.427 2.776 1.427zM25.061 1.98c1.427 0 2.696.339 3.805 1.016 1.11.677 1.968 1.648 2.575 2.912.609 1.265.913 2.725.913 4.38v.755c0 1.663-.298 3.121-.894 4.374-.597 1.253-1.449 2.22-2.559 2.901-1.109.681-2.382 1.021-3.816 1.021-1.42 0-2.686-.336-3.8-1.009-1.113-.673-1.975-1.634-2.587-2.883-.612-1.25-.922-2.687-.93-4.312v-.834c0-1.664.304-3.128.913-4.393.607-1.264 1.466-2.235 2.575-2.912 1.11-.677 2.378-1.016 3.805-1.016zm76.759 9.098c.549 0 1.02-.14 1.417-.418.396-.278.696-.615.9-1.01V8.27c0-1.138-.22-2.02-.659-2.646-.44-.627-1.027-.94-1.764-.94-.683 0-1.243.307-1.683.922-.438.615-.658 1.388-.658 2.315 0 .921.214 1.678.641 2.269.428.592 1.03.888 1.806.888zm-.082-9.098c1.129 0 2.132.279 3.01.836.879.557 1.56 1.358 2.047 2.402.486 1.044.733 2.239.74 3.586l.001 1.241c0 2.815-.71 5.028-2.129 6.637-1.42 1.61-3.43 2.468-6.034 2.576l-.835.012v-2.797l.753-.011c2.956-.132 4.555-1.5 4.798-4.108-.885.859-1.92 1.289-3.104 1.289-1.514 0-2.725-.513-3.634-1.538-.91-1.025-1.365-2.408-1.365-4.149 0-1.106.244-2.12.735-3.046.49-.924 1.174-1.643 2.052-2.158.878-.514 1.867-.772 2.965-.772z"/>
            </g>
        </g>
    </g>
</svg>
