<svg xmlns="http://www.w3.org/2000/svg" width="16" height="16" viewBox="0 0 16 16">
    <g fill="none" fill-rule="evenodd">
        <g fill="#00838F" fill-rule="nonzero">
            <g>
                <g>
                    <path d="M15 7.987c.007 3.857-3.138 7.01-6.995 7.013-1.666.001-3.196-.58-4.398-1.55-.313-.252-.336-.72-.052-1.005l.318-.318c.243-.243.63-.27.9-.056.886.703 2.007 1.123 3.227 1.123 2.87 0 5.194-2.324 5.194-5.194S10.87 2.806 8 2.806c-1.378 0-2.63.536-3.558 1.41l1.432 1.432c.285.285.083.771-.32.771H1.453c-.25 0-.452-.202-.452-.451V1.864c0-.402.486-.603.771-.319L3.165 2.94C4.42 1.738 6.125 1 8 1c3.862 0 6.993 3.127 7 6.987zM9.894 10.21l.277-.356c.23-.295.176-.72-.119-.95L8.903 8.01V5.065c0-.375-.303-.678-.677-.678h-.452c-.374 0-.677.303-.677.678v3.828l1.846 1.436c.295.23.72.177.95-.119z" transform="translate(-153 -66) translate(141 20) translate(12 46)"/>
                </g>
            </g>
        </g>
    </g>
</svg>
