<svg xmlns="http://www.w3.org/2000/svg" width="16" height="16" viewBox="0 0 16 16">
    <g fill="none" fill-rule="evenodd">
        <g fill="#00838F" fill-rule="nonzero">
            <g>
                <g>
                    <g>
                        <path d="M13.96 4.768c0 3.6-3.889 3.655-3.889 4.986v.34c0 .356-.288.644-.644.644h-2.45c-.357 0-.645-.288-.645-.644v-.465c0-1.92 1.455-2.686 2.554-3.303.943-.528 1.521-.888 1.521-1.588 0-.926-1.181-1.54-2.136-1.54-1.245 0-1.82.589-2.628 1.609-.217.274-.615.326-.894.114L3.255 3.788c-.275-.208-.336-.594-.142-.879C4.38 1.046 5.997 0 8.513 0c2.634 0 5.447 2.057 5.447 4.768zm-3.503 8.977c0 1.243-1.012 2.255-2.255 2.255-1.244 0-2.255-1.012-2.255-2.255 0-1.243 1.011-2.255 2.255-2.255 1.243 0 2.255 1.012 2.255 2.255z" transform="translate(-1235 -33) translate(1124 20) translate(98) translate(13 13)"/>
                    </g>
                </g>
            </g>
        </g>
    </g>
</svg>
