<svg xmlns="http://www.w3.org/2000/svg" width="16" height="16" viewBox="0 0 16 16">
    <g fill="none" fill-rule="evenodd">
        <g fill="#00838F" fill-rule="nonzero">
            <g>
                <g>
                    <g>
                        <path d="M15.796 9.923l-1.436-.794c.145-.748.145-1.516 0-2.264l1.436-.794c.165-.09.239-.277.185-.452-.374-1.148-1.01-2.187-1.843-3.051-.128-.132-.337-.165-.499-.074l-1.435.793c-.604-.497-1.298-.88-2.05-1.132V.57c0-.18-.13-.339-.316-.377-1.237-.265-2.504-.252-3.68 0-.185.038-.316.196-.316.377v1.587c-.749.255-1.443.639-2.05 1.132l-1.431-.793c-.165-.09-.371-.061-.499.074-.832.861-1.47 1.9-1.843 3.052-.058.174.02.36.185.451l1.436.794c-.145.748-.145 1.516 0 2.264l-1.436.794c-.165.09-.24.277-.185.451.374 1.149 1.01 2.187 1.843 3.052.128.132.337.165.499.074l1.435-.793c.603.496 1.297.88 2.049 1.132v1.587c0 .18.131.339.317.377 1.236.265 2.503.252 3.68 0 .185-.038.316-.196.316-.377v-1.587c.748-.255 1.442-.639 2.049-1.132l1.435.793c.166.09.371.061.5-.074.831-.861 1.468-1.9 1.842-3.052.05-.177-.023-.364-.188-.454zm-7.798.654c-1.486 0-2.696-1.158-2.696-2.58 0-1.423 1.21-2.58 2.696-2.58 1.486 0 2.696 1.157 2.696 2.58 0 1.422-1.21 2.58-2.696 2.58z" transform="translate(-308 -33) translate(20 20) translate(275) translate(13 13)"/>
                    </g>
                </g>
            </g>
        </g>
    </g>
</svg>
