<svg xmlns="http://www.w3.org/2000/svg" width="16" height="16" viewBox="0 0 16 16">
    <g fill="none" fill-rule="evenodd" opacity=".3">
        <g fill="#333" fill-rule="nonzero">
            <g>
                <g>
                    <g>
                        <g>
                            <path d="M13.571 1.875h-3.214l-.252-.511C9.997 1.14 9.773 1 9.53 1H6.468c-.244 0-.466.14-.573.364l-.252.511H2.429c-.237 0-.429.196-.429.438v.875c0 .241.192.437.429.437H13.57c.237 0 .429-.196.429-.437v-.875c0-.242-.192-.438-.429-.438zM3.425 13.77c.042.691.604 1.23 1.283 1.23h6.584c.679 0 1.24-.539 1.283-1.23l.568-9.27H2.857l.568 9.27z" transform="translate(-1280 -129) translate(20 20) translate(1016 67) translate(22 32) translate(222 10)"/>
                        </g>
                    </g>
                </g>
            </g>
        </g>
    </g>
</svg>
