<svg xmlns="http://www.w3.org/2000/svg" width="16" height="16" viewBox="0 0 16 16">
    <g fill="none" fill-rule="evenodd" opacity=".5">
        <g fill="#333" fill-rule="nonzero">
            <g>
                <g>
                    <g>
                        <path d="M15.782 13.835l-3.115-3.115c-.141-.141-.332-.22-.532-.22h-.51c.863-1.102 1.376-2.49 1.376-4 0-3.59-2.91-6.5-6.5-6.5C2.91 0 0 2.91 0 6.5c0 3.591 2.91 6.501 6.5 6.501 1.51 0 2.898-.513 4-1.375v.51c0 .2.079.39.22.53l3.115 3.116c.294.294.77.294 1.06 0l.884-.884c.294-.294.294-.769.003-1.063zM6.5 10.501c-2.21 0-4-1.788-4-4 0-2.21 1.788-4 4-4 2.21 0 4 1.787 4 4 0 2.209-1.787 4-4 4z" transform="translate(-52 -177) translate(20 92) translate(20 72) translate(12 13)"/>
                    </g>
                </g>
            </g>
        </g>
    </g>
</svg>
