<svg xmlns="http://www.w3.org/2000/svg" width="16" height="16" viewBox="0 0 16 16">
    <g fill="none" fill-rule="evenodd">
        <g fill="#00838F" fill-rule="nonzero">
            <path d="M12.813 9.75h-.876c-.241 0-.437.196-.437.438v3.062H2.75V4.5h3.938c.241 0 .437-.196.437-.438v-.875c0-.241-.196-.437-.438-.437H2.313C1.589 2.75 1 3.338 1 4.063v9.625C1 14.412 1.588 15 2.313 15h9.624c.725 0 1.313-.588 1.313-1.313v-3.5c0-.241-.196-.437-.438-.437zM14.342 1h-3.5c-.584 0-.876.708-.464 1.121l.977.977L4.69 9.76c-.123.123-.193.29-.193.465 0 .174.07.342.193.465l.62.619c.123.123.29.193.465.193.175 0 .342-.07.465-.193l6.661-6.664.977.976c.41.41 1.121.123 1.121-.465v-3.5c0-.362-.294-.656-.656-.656z"/>
        </g>
    </g>
</svg>
