<svg xmlns="http://www.w3.org/2000/svg" width="16" height="16" viewBox="0 0 16 16">
    <g fill="none" fill-rule="evenodd">
        <g fill="#00838F" fill-rule="nonzero">
            <path d="M8 1C4.134 1 1 4.135 1 8c0 3.867 3.134 7 7 7s7-3.133 7-7c0-3.865-3.134-7-7-7zm0 3.105c.655 0 1.185.53 1.185 1.185S8.655 6.476 8 6.476 6.815 5.945 6.815 5.29c0-.654.53-1.185 1.185-1.185zm1.58 7.17c0 .186-.151.338-.338.338H6.758c-.187 0-.339-.152-.339-.339v-.677c0-.187.152-.339.34-.339h.338V8.452h-.339c-.187 0-.339-.152-.339-.34v-.677c0-.187.152-.338.34-.338h1.806c.187 0 .338.151.338.338v2.823h.339c.187 0 .339.152.339.339v.677z"/>
        </g>
    </g>
</svg>
