<svg xmlns="http://www.w3.org/2000/svg" width="20" height="20" viewBox="0 0 20 20">
    <g fill="none" fill-rule="evenodd" opacity=".5">
        <g fill="#FFF" fill-rule="nonzero">
            <g>
                <g>
                    <path d="M10 0C4.476 0 0 4.476 0 10s4.476 10 10 10 10-4.476 10-10S15.524 0 10 0zm4.903 12.625c.19.19.19.496 0 .685l-1.597 1.593c-.19.19-.496.19-.685 0L10 12.258l-2.625 2.645c-.19.19-.496.19-.685 0l-1.593-1.597c-.19-.19-.19-.496 0-.685L7.742 10 5.097 7.375c-.19-.19-.19-.496 0-.685l1.597-1.597c.19-.19.496-.19.685 0L10 7.742l2.625-2.645c.19-.19.496-.19.685 0l1.597 1.597c.19.19.19.496 0 .685L12.258 10l2.645 2.625z" transform="translate(-1388 -104) translate(1083 92) translate(305 12)"/>
                </g>
            </g>
        </g>
    </g>
</svg>
