<svg xmlns="http://www.w3.org/2000/svg" width="16" height="16" viewBox="0 0 16 16">
    <g fill="none" fill-rule="evenodd">
        <g fill="#00838F" fill-rule="nonzero">
            <g>
                <g>
                    <g>
                        <path d="M15.18 5.13l-4.369-.638L8.858.532c-.35-.705-1.363-.714-1.716 0l-1.953 3.96-4.37.637C.036 5.243-.278 6.21.29 6.762l3.161 3.08-.747 4.352c-.135.787.693 1.376 1.387 1.008L8 13.147l3.909 2.055c.694.365 1.522-.221 1.387-1.008l-.747-4.351 3.16-3.08c.57-.554.255-1.52-.528-1.634z" transform="translate(-1352 -229) translate(1083 92) translate(12 136) translate(257 1)"/>
                    </g>
                </g>
            </g>
        </g>
    </g>
</svg>
