<svg xmlns="http://www.w3.org/2000/svg" width="16" height="16" viewBox="0 0 16 16">
    <g fill="none" fill-rule="evenodd">
        <g fill="#00838F" fill-rule="nonzero">
            <g>
                <g>
                    <path d="M8 6.258c.83 0 1.5.78 1.5 1.742 0 .963-.67 1.742-1.5 1.742S6.5 8.962 6.5 8c0-.963.67-1.742 1.5-1.742zM6.5 3.742c0 .963.67 1.742 1.5 1.742s1.5-.78 1.5-1.742C9.5 2.779 8.83 2 8 2s-1.5.779-1.5 1.742zm0 8.516C6.5 13.221 7.17 14 8 14s1.5-.779 1.5-1.742-.67-1.742-1.5-1.742-1.5.78-1.5 1.742z" transform="translate(-1229 -275) translate(1114 257) rotate(90 56.5 74.5)"/>
                </g>
            </g>
        </g>
    </g>
</svg>
