<svg xmlns="http://www.w3.org/2000/svg" width="16" height="16" viewBox="0 0 16 16">
    <g fill="none" fill-rule="evenodd" opacity=".499">
        <g fill="#333" fill-rule="nonzero">
            <g>
                <g>
                    <path d="M12.5 2H10c0-1.103-.897-2-2-2S6 .897 6 2H3.5C2.672 2 2 2.672 2 3.5v11c0 .828.672 1.5 1.5 1.5h9c.828 0 1.5-.672 1.5-1.5v-11c0-.828-.672-1.5-1.5-1.5zM8 1.25c.416 0 .75.334.75.75s-.334.75-.75.75-.75-.334-.75-.75.334-.75.75-.75zm3.787 7.244L7.32 12.925c-.147.147-.385.144-.532-.003l-2.58-2.603c-.148-.147-.144-.385.002-.532l.888-.88c.147-.148.384-.145.531.002l1.438 1.45 3.312-3.287c.147-.147.384-.144.531.003l.882.888c.146.15.143.384-.004.53z" transform="translate(-1134 -373) translate(1114 257) translate(20 116)"/>
                </g>
            </g>
        </g>
    </g>
</svg>
