<svg xmlns="http://www.w3.org/2000/svg" width="14" height="14" viewBox="0 0 14 14">
    <g fill="none" fill-rule="evenodd" opacity=".5">
        <g fill="#333" fill-rule="nonzero">
            <g>
                <g>
                    <g>
                        <path d="M13.797 10.643c.263.263.263.688 0 .951l-2.214 2.209c-.263.263-.688.263-.95 0l-3.636-3.669-3.64 3.669c-.263.263-.688.263-.951 0L.197 11.588c-.263-.262-.263-.687 0-.95l3.669-3.635-3.669-3.64c-.263-.264-.263-.689 0-.951L2.412.197c.262-.263.687-.263.95 0l3.635 3.674 3.64-3.668c.264-.263.689-.263.951 0l2.215 2.214c.263.263.263.688 0 .95l-3.674 3.636 3.668 3.64z" transform="translate(-958 -727) translate(428 20) translate(30 449) translate(500 258)"/>
                    </g>
                </g>
            </g>
        </g>
    </g>
</svg>
