<svg xmlns="http://www.w3.org/2000/svg" width="16" height="16" viewBox="0 0 16 16">
    <g fill="none" fill-rule="evenodd" opacity=".499">
        <g fill="#333" fill-rule="nonzero">
            <g>
                <g>
                    <path d="M4.8 7.895c1.548 0 2.8-1.319 2.8-2.948S6.348 2 4.8 2C3.253 2 2 3.318 2 4.947c0 1.63 1.252 2.948 2.8 2.948zm1.92.842h-.207c-.52.274-1.098.438-1.713.438s-1.19-.164-1.712-.438H2.88C1.29 8.737 0 10.15 0 11.895v.79C0 13.41.537 14 1.2 14h7.2c.662 0 1.2-.59 1.2-1.316v-.79c0-1.743-1.29-3.157-2.88-3.157zM12 7.895c1.325 0 2.4-1.132 2.4-2.527 0-1.394-1.075-2.526-2.4-2.526S9.6 3.974 9.6 5.368c0 1.395 1.075 2.527 2.4 2.527zm1.2.842h-.095c-.348.126-.715.21-1.105.21s-.758-.084-1.105-.21H10.8c-.51 0-.98.155-1.393.405.61.692.993 1.61.993 2.626v1.01c0 .059-.013.114-.015.17H14.8c.662 0 1.2-.566 1.2-1.264 0-1.629-1.252-2.947-2.8-2.947z" transform="translate(-1134 -341) translate(1114 257) translate(20 84)"/>
                </g>
            </g>
        </g>
    </g>
</svg>
