<svg xmlns="http://www.w3.org/2000/svg" width="16" height="16" viewBox="0 0 16 16">
    <g fill="none" fill-rule="evenodd" opacity=".5">
        <g fill="#333" fill-rule="nonzero">
            <g>
                <g>
                    <path d="M15.903 7.928C14.397 4.988 11.415 3 8 3 4.585 3 1.602 4.99.097 7.928c-.13.255-.13.556 0 .81 1.506 2.94 4.488 4.929 7.903 4.929 3.415 0 6.398-1.99 7.903-4.928.13-.255.13-.556 0-.811zM8 12.333c-2.21 0-4-1.79-4-4 0-2.209 1.79-4 4-4s4 1.791 4 4c0 1.061-.42 2.08-1.171 2.83-.75.75-1.768 1.17-2.829 1.17zm0-6.666c-.238.003-.475.038-.703.105.39.529.334 1.263-.13 1.728-.465.464-1.2.52-1.728.13-.3 1.102.137 2.27 1.085 2.907.948.635 2.195.596 3.101-.098.906-.695 1.268-1.89.9-2.97C10.157 6.39 9.14 5.665 8 5.668z" transform="translate(-867 -312) translate(546 299) translate(321 13)"/>
                </g>
            </g>
        </g>
    </g>
</svg>
